<svg aria-hidden="true" style="position: absolute; width: 0; height: 0; overflow: hidden;" version="1.1" xmlns="http://www.w3.org/2000/svg" xmlns:xlink="http://www.w3.org/1999/xlink">
<defs>
<symbol id="icon-linkedin-square" viewBox="0 0 24 28">
<title>linkedin-square</title>
<path d="M3.703 22.094h3.609v-10.844h-3.609v10.844zM7.547 7.906c-0.016-1.062-0.781-1.875-2.016-1.875s-2.047 0.812-2.047 1.875c0 1.031 0.781 1.875 2 1.875h0.016c1.266 0 2.047-0.844 2.047-1.875zM16.688 22.094h3.609v-6.219c0-3.328-1.781-4.875-4.156-4.875-1.937 0-2.797 1.078-3.266 1.828h0.031v-1.578h-3.609s0.047 1.016 0 10.844v0h3.609v-6.062c0-0.313 0.016-0.641 0.109-0.875 0.266-0.641 0.859-1.313 1.859-1.313 1.297 0 1.813 0.984 1.813 2.453v5.797zM24 6.5v15c0 2.484-2.016 4.5-4.5 4.5h-15c-2.484 0-4.5-2.016-4.5-4.5v-15c0-2.484 2.016-4.5 4.5-4.5h15c2.484 0 4.5 2.016 4.5 4.5z"></path>
</symbol>
<symbol id="icon-twitter" viewBox="0 0 26 28">
<title>twitter</title>
<path d="M25.312 6.375c-0.688 1-1.547 1.891-2.531 2.609 0.016 0.219 0.016 0.438 0.016 0.656 0 6.672-5.078 14.359-14.359 14.359-2.859 0-5.516-0.828-7.75-2.266 0.406 0.047 0.797 0.063 1.219 0.063 2.359 0 4.531-0.797 6.266-2.156-2.219-0.047-4.078-1.5-4.719-3.5 0.313 0.047 0.625 0.078 0.953 0.078 0.453 0 0.906-0.063 1.328-0.172-2.312-0.469-4.047-2.5-4.047-4.953v-0.063c0.672 0.375 1.453 0.609 2.281 0.641-1.359-0.906-2.25-2.453-2.25-4.203 0-0.938 0.25-1.797 0.688-2.547 2.484 3.062 6.219 5.063 10.406 5.281-0.078-0.375-0.125-0.766-0.125-1.156 0-2.781 2.25-5.047 5.047-5.047 1.453 0 2.766 0.609 3.687 1.594 1.141-0.219 2.234-0.641 3.203-1.219-0.375 1.172-1.172 2.156-2.219 2.781 1.016-0.109 2-0.391 2.906-0.781z"></path>
</symbol>
<symbol id="icon-pinterest" viewBox="0 0 24 28">
<title>pinterest</title>
<path d="M24 14c0 6.625-5.375 12-12 12-1.188 0-2.312-0.172-3.406-0.5 0.453-0.719 0.969-1.641 1.219-2.562 0 0 0.141-0.531 0.844-3.297 0.406 0.797 1.625 1.5 2.922 1.5 3.859 0 6.484-3.516 6.484-8.234 0-3.547-3.016-6.875-7.609-6.875-5.688 0-8.563 4.094-8.563 7.5 0 2.063 0.781 3.906 2.453 4.594 0.266 0.109 0.516 0 0.594-0.313 0.063-0.203 0.187-0.734 0.25-0.953 0.078-0.313 0.047-0.406-0.172-0.672-0.484-0.578-0.797-1.313-0.797-2.359 0-3.031 2.266-5.75 5.906-5.75 3.219 0 5 1.969 5 4.609 0 3.453-1.531 6.375-3.813 6.375-1.25 0-2.188-1.031-1.891-2.312 0.359-1.516 1.062-3.156 1.062-4.25 0-0.984-0.531-1.813-1.625-1.813-1.281 0-2.312 1.328-2.312 3.109 0 0 0 1.141 0.391 1.906-1.313 5.563-1.547 6.531-1.547 6.531-0.219 0.906-0.234 1.922-0.203 2.766-4.234-1.859-7.187-6.078-7.187-11 0-6.625 5.375-12 12-12s12 5.375 12 12z"></path>
</symbol>
<symbol id="icon-thumbs-up" viewBox="0 0 20 20">
<title>thumbs-up</title>
<path d="M11 0h1v3l3 7v8c0 1.105-0.895 2-2 2v0h-8c-1.1 0-2.31-0.84-2.7-1.88l-2.3-6.12v-2c0-1.105 0.895-2 2-2v0h7v-6c0-1.105 0.895-2 2-2v0zM17 10h3v10h-3v-10z"></path>
</symbol>
<symbol id="icon-home3" viewBox="0 0 32 32">
<title>home3</title>
<path d="M32 19l-6-6v-9h-4v5l-6-6-16 16v1h4v10h10v-6h4v6h10v-10h4z"></path>
</symbol>
<symbol id="icon-book" viewBox="0 0 32 32">
<title>book</title>
<path d="M28 4v26h-21c-1.657 0-3-1.343-3-3s1.343-3 3-3h19v-24h-20c-2.2 0-4 1.8-4 4v24c0 2.2 1.8 4 4 4h24v-28h-2z"></path>
<path d="M7.002 26v0c-0.001 0-0.001 0-0.002 0-0.552 0-1 0.448-1 1s0.448 1 1 1c0.001 0 0.001-0 0.002-0v0h18.997v-2h-18.997z"></path>
</symbol>
<symbol id="icon-books" viewBox="0 0 36 32">
<title>books</title>
<path d="M7 4h-6c-0.55 0-1 0.45-1 1v22c0 0.55 0.45 1 1 1h6c0.55 0 1-0.45 1-1v-22c0-0.55-0.45-1-1-1zM6 10h-4v-2h4v2z"></path>
<path d="M17 4h-6c-0.55 0-1 0.45-1 1v22c0 0.55 0.45 1 1 1h6c0.55 0 1-0.45 1-1v-22c0-0.55-0.45-1-1-1zM16 10h-4v-2h4v2z"></path>
<path d="M23.909 5.546l-5.358 2.7c-0.491 0.247-0.691 0.852-0.443 1.343l8.999 17.861c0.247 0.491 0.852 0.691 1.343 0.443l5.358-2.7c0.491-0.247 0.691-0.852 0.443-1.343l-8.999-17.861c-0.247-0.491-0.852-0.691-1.343-0.443z"></path>
</symbol>
<symbol id="icon-file-text" viewBox="0 0 32 32">
<title>file-text</title>
<path d="M27 0h-24c-1.65 0-3 1.35-3 3v26c0 1.65 1.35 3 3 3h24c1.65 0 3-1.35 3-3v-26c0-1.65-1.35-3-3-3zM26 28h-22v-24h22v24zM8 14h14v2h-14zM8 18h14v2h-14zM8 22h14v2h-14zM8 10h14v2h-14z"></path>
</symbol>
<symbol id="icon-display" viewBox="0 0 32 32">
<title>display</title>
<path d="M0 2v20h32v-20h-32zM30 20h-28v-16h28v16zM21 24h-10l-1 4-2 2h16l-2-2z"></path>
</symbol>
<symbol id="icon-bubbles" viewBox="0 0 36 32">
<title>bubbles</title>
<path d="M34 28.161c0 1.422 0.813 2.653 2 3.256v0.498c-0.332 0.045-0.671 0.070-1.016 0.070-2.125 0-4.042-0.892-5.398-2.321-0.819 0.218-1.688 0.336-2.587 0.336-4.971 0-9-3.582-9-8s4.029-8 9-8c4.971 0 9 3.582 9 8 0 1.73-0.618 3.331-1.667 4.64-0.213 0.463-0.333 0.979-0.333 1.522zM16 0c8.702 0 15.781 5.644 15.995 12.672-1.537-0.685-3.237-1.047-4.995-1.047-2.986 0-5.807 1.045-7.942 2.943-2.214 1.968-3.433 4.607-3.433 7.432 0 1.396 0.298 2.747 0.867 3.993-0.163 0.004-0.327 0.007-0.492 0.007-0.849 0-1.682-0.054-2.495-0.158-3.437 3.437-7.539 4.053-11.505 4.144v-0.841c2.142-1.049 4-2.961 4-5.145 0-0.305-0.024-0.604-0.068-0.897-3.619-2.383-5.932-6.024-5.932-10.103 0-7.18 7.163-13 16-13z"></path>
</symbol>
<symbol id="icon-users" viewBox="0 0 36 32">
<title>users</title>
<path d="M24 24.082v-1.649c2.203-1.241 4-4.337 4-7.432 0-4.971 0-9-6-9s-6 4.029-6 9c0 3.096 1.797 6.191 4 7.432v1.649c-6.784 0.555-12 3.888-12 7.918h28c0-4.030-5.216-7.364-12-7.918z"></path>
<path d="M10.225 24.854c1.728-1.13 3.877-1.989 6.243-2.513-0.47-0.556-0.897-1.176-1.265-1.844-0.95-1.726-1.453-3.627-1.453-5.497 0-2.689 0-5.228 0.956-7.305 0.928-2.016 2.598-3.265 4.976-3.734-0.529-2.39-1.936-3.961-5.682-3.961-6 0-6 4.029-6 9 0 3.096 1.797 6.191 4 7.432v1.649c-6.784 0.555-12 3.888-12 7.918h8.719c0.454-0.403 0.956-0.787 1.506-1.146z"></path>
</symbol>
<symbol id="icon-magic-wand" viewBox="0 0 32 32">
<title>magic-wand</title>
<path d="M8 6l-4-4h-2v2l4 4zM10 0h2v4h-2zM18 10h4v2h-4zM20 4v-2h-2l-4 4 2 2zM0 10h4v2h-4zM10 18h2v4h-2zM2 18v2h2l4-4-2-2zM31.563 27.563l-19.879-19.879c-0.583-0.583-1.538-0.583-2.121 0l-1.879 1.879c-0.583 0.583-0.583 1.538 0 2.121l19.879 19.879c0.583 0.583 1.538 0.583 2.121 0l1.879-1.879c0.583-0.583 0.583-1.538 0-2.121zM15 17l-6-6 2-2 6 6-2 2z"></path>
</symbol>
</defs>
</svg>
